<mxfile host="app.diagrams.net" modified="2023-08-02T22:00:06.298Z" agent="Mozilla/5.0 (Macintosh; Intel Mac OS X 10_15_7) AppleWebKit/605.1.15 (KHTML, like Gecko) Version/16.6 Safari/605.1.15" version="21.6.6" etag="iLYdPqDAZ02h2qyfvcu2" type="github">
  <diagram name="Page-1" id="yn4Snn5sbPiegcRdmfrw">
    <mxGraphModel>
      <root>
        <mxCell id="0" />
        <mxCell id="1" parent="0" />
      </root>
    </mxGraphModel>
  </diagram>
</mxfile>
